<?xml version="1.0" encoding="UTF-8"?>
<svg version="1.1" xmlns="http://www.w3.org/2000/svg" width="300" height="300">
<path d="M0 0 C0.43560056 11.34174798 -0.14519781 19.78147292 -7 29 C-3.60582235 25.87378374 -1.3937282 23.43458973 0 19 C8.78723404 18.55319149 8.78723404 18.55319149 13 22 C14.73557918 27.20673755 14.18591795 32.79982526 14.18530273 38.2512207 C14.18748859 40.42614324 14.20565497 42.60055783 14.22460938 44.77539062 C14.22754373 46.1614566 14.22952824 47.54752498 14.23046875 48.93359375 C14.23457764 50.19228271 14.23868652 51.45097168 14.24291992 52.74780273 C14.01139306 55.84747035 13.8224958 57.51707004 12 60 C8.53551476 62.55750439 5.01164124 62.22960362 0.828125 62.1953125 C0.1457074 62.1924826 -0.53671021 62.18965271 -1.23980713 62.18673706 C-3.41005307 62.17558098 -5.57987971 62.15048557 -7.75 62.125 C-9.22525444 62.11496426 -10.70051537 62.10583944 -12.17578125 62.09765625 C-15.78398942 62.07565687 -19.39195375 62.04115883 -23 62 C-22.98952637 62.91813477 -22.97905273 63.83626953 -22.96826172 64.78222656 C-22.93412785 68.19647746 -22.9090759 71.61054638 -22.89013672 75.02490234 C-22.88009409 76.50116847 -22.86645735 77.97741479 -22.84912109 79.45361328 C-22.82479579 81.57850034 -22.8134996 83.70312385 -22.8046875 85.828125 C-22.79421387 87.1059082 -22.78374023 88.38369141 -22.77294922 89.70019531 C-22.98839275 92.83130798 -23.15412874 94.49951799 -25 97 C-28.6075272 99.7844506 -32.9095579 99.22469213 -37.25 99.125 C-37.99507812 99.11597656 -38.74015625 99.10695313 -39.5078125 99.09765625 C-41.33868059 99.07418358 -43.16938238 99.03831525 -45 99 C-45.08040527 98.03288086 -45.16081055 97.06576172 -45.24365234 96.06933594 C-45.54810003 92.42339903 -45.85908301 88.77804221 -46.171875 85.1328125 C-46.30544767 83.56590229 -46.4373324 81.99884711 -46.56738281 80.43164062 C-47.26138538 72.08225591 -48.02751633 63.83556257 -49.58911133 55.59301758 C-51.21064702 45.35990372 -50.3780899 34.50101062 -44.4375 25.75 C-37.89995957 18.0627831 -28.70869569 13.58880048 -19.75 9.3125 C-12.41600622 5.87344045 -12.41600622 5.87344045 -5.515625 1.66796875 C-3 0 -3 0 0 0 Z " fill="#80C74D" transform="translate(195,75)"/>
<path d="M0 0 C0.99 0 1.98 0 3 0 C3 0.99 3 1.98 3 3 C3.66 3 4.32 3 5 3 C6.25664978 5.90600261 7 7.79604584 7 11 C7.66 11 8.32 11 9 11 C25.248415 41.97749769 37.07261308 77.66335798 36 113 C33.93816367 113.08150744 31.87538651 113.1394194 29.8125 113.1875 C28.08966797 113.23970703 28.08966797 113.23970703 26.33203125 113.29296875 C22.67952593 112.97182233 20.86754911 112.24895533 18 110 C16.82057915 106.46173745 16.88710811 103.65851274 16.90234375 99.92578125 C16.9037587 99.2419487 16.90517365 98.55811615 16.90663147 97.8535614 C16.91222124 95.67316278 16.92477178 93.49286749 16.9375 91.3125 C16.94251633 89.83268378 16.947079 88.35286594 16.95117188 86.87304688 C16.96218729 83.24866443 16.97944488 79.6243423 17 76 C16.08710205 76.01571045 15.1742041 76.0314209 14.23364258 76.04760742 C10.8323799 76.0988697 7.43153037 76.13641439 4.0300293 76.16479492 C2.56056218 76.17984066 1.09113966 76.20028238 -0.37817383 76.22631836 C-2.4957177 76.26288955 -4.61266565 76.27976801 -6.73046875 76.29296875 C-8.63928833 76.31653442 -8.63928833 76.31653442 -10.58666992 76.34057617 C-14.2574415 75.97431293 -16.12411181 75.27706399 -19 73 C-20.73557918 67.79326245 -20.18591795 62.20017474 -20.18530273 56.7487793 C-20.18748859 54.57385676 -20.20565497 52.39944217 -20.22460938 50.22460938 C-20.22754373 48.8385434 -20.22952824 47.45247502 -20.23046875 46.06640625 C-20.23457764 44.80771729 -20.23868652 43.54902832 -20.24291992 42.25219727 C-20.01139306 39.15252965 -19.8224958 37.48292996 -18 35 C-14.75326001 32.69712203 -11.82149533 32.76645593 -7.921875 32.8046875 C-6.18164062 32.81435547 -6.18164062 32.81435547 -4.40625 32.82421875 C-3.1996875 32.84097656 -1.993125 32.85773438 -0.75 32.875 C1.08304688 32.88853516 1.08304688 32.88853516 2.953125 32.90234375 C5.96894782 32.92590487 8.98437492 32.95880294 12 33 C11.59007813 31.87722656 11.18015625 30.75445312 10.7578125 29.59765625 C8.05894378 22.1286746 5.42480573 14.83643153 4 7 C3.34 7 2.68 7 2 7 C2 5.68 2 4.36 2 3 C1.34 3 0.68 3 0 3 C0 2.01 0 1.02 0 0 Z " fill="#82C84F" transform="translate(112,61)"/>
<path d="M0 0 C2.15538164 0.0031586 4.30938762 -0.02031044 6.46459961 -0.0456543 C7.8428531 -0.04792773 9.22111025 -0.04863058 10.59936523 -0.04760742 C11.84645264 -0.05058838 13.09354004 -0.05356934 14.37841797 -0.05664062 C17.99470312 0.34528597 19.88282859 1.07797632 22.72827148 3.31567383 C23.72832452 6.31583295 23.84402734 8.28991139 23.82592773 11.42114258 C23.82270508 12.40405273 23.81948242 13.38696289 23.81616211 14.3996582 C23.80359375 15.93589844 23.80359375 15.93589844 23.79077148 17.50317383 C23.78625977 18.53893555 23.78174805 19.57469727 23.77709961 20.6418457 C23.76531159 23.19984649 23.74885664 25.75773116 23.72827148 28.31567383 C22.64288086 28.83516602 21.55749023 29.3546582 20.43920898 29.88989258 C18.99368341 30.59388231 17.54838278 31.29833408 16.10327148 32.00317383 C15.39041992 32.3428418 14.67756836 32.68250977 13.94311523 33.0324707 C7.09812764 36.39216645 1.53315304 39.88273771 -1.27172852 47.31567383 C-2.06193576 50.63056835 -2.70726166 53.95543582 -3.27172852 57.31567383 C-4.26172852 57.31567383 -5.25172852 57.31567383 -6.27172852 57.31567383 C-6.48788818 56.79247559 -6.70404785 56.26927734 -6.92675781 55.73022461 C-7.57044916 54.17613314 -8.21621305 52.62289923 -8.86352539 51.0703125 C-9.59950512 49.30399395 -10.33121742 47.53589175 -11.05883789 45.76611328 C-12.86412934 41.42884447 -14.71654748 37.45744535 -17.27172852 33.50317383 C-20.79816647 25.561389 -21.43678716 12.41502754 -18.49853516 4.13745117 C-14.5423866 -1.73733103 -6.274078 -0.01928288 0 0 Z " fill="#82C850" transform="translate(148.271728515625,56.684326171875)"/>
<path d="M0 0 C0.99 0 1.98 0 3 0 C3 0.99 3 1.98 3 3 C3.66 3 4.32 3 5 3 C6.25664978 5.90600261 7 7.79604584 7 11 C7.66 11 8.32 11 9 11 C10.6875 13.375 10.6875 13.375 12 16 C11.67 16.66 11.34 17.32 11 18 C10.01 17.34 9.02 16.68 8 16 C8.33 17.65 8.66 19.3 9 21 C6.81385576 18.81385576 6.31743465 17.46120051 5.375 14.5625 C5.11460938 13.78003906 4.85421875 12.99757813 4.5859375 12.19140625 C4 10 4 10 4 7 C3.34 7 2.68 7 2 7 C2 5.68 2 4.36 2 3 C1.34 3 0.68 3 0 3 C0 2.01 0 1.02 0 0 Z " fill="#B2DD93" transform="translate(112,61)"/>
<path d="M0 0 C0.99 0 1.98 0 3 0 C3 0.99 3 1.98 3 3 C3.66 3 4.32 3 5 3 C4.67 4.32 4.34 5.64 4 7 C3.34 7 2.68 7 2 7 C2 5.68 2 4.36 2 3 C1.34 3 0.68 3 0 3 C0 2.01 0 1.02 0 0 Z " fill="#CDE8B9" transform="translate(112,61)"/>
<path d="M0 0 C0.66 0.33 1.32 0.66 2 1 C0.38405168 3.04119788 -1.2856382 5.04072937 -3 7 C-3.66 7 -4.32 7 -5 7 C-3.70700306 4.11562221 -2.34058637 2.12780579 0 0 Z " fill="#B5DE97" transform="translate(156,95)"/>
</svg>
